<mxfile host="65bd71144e">
    <diagram name="Página-1" id="f7-zcyWFl8f7tQIr4r0p">
        <mxGraphModel dx="1815" dy="861" grid="1" gridSize="10" guides="1" tooltips="1" connect="1" arrows="1" fold="1" page="1" pageScale="1" pageWidth="827" pageHeight="1169" math="0" shadow="0">
            <root>
                <mxCell id="0"/>
                <mxCell id="1" parent="0"/>
                <mxCell id="Hh7dZNtptdnggyX2xkTj-29" value="" style="rounded=0;whiteSpace=wrap;html=1;" parent="1" vertex="1">
                    <mxGeometry x="104" y="250" width="310" height="690" as="geometry"/>
                </mxCell>
                <mxCell id="Hh7dZNtptdnggyX2xkTj-30" value="" style="rounded=0;whiteSpace=wrap;html=1;" parent="1" vertex="1">
                    <mxGeometry x="414" y="250" width="310" height="690" as="geometry"/>
                </mxCell>
                <mxCell id="Hh7dZNtptdnggyX2xkTj-1" value="Passageiro" style="rounded=0;whiteSpace=wrap;html=1;" parent="1" vertex="1">
                    <mxGeometry x="104" y="210" width="310" height="40" as="geometry"/>
                </mxCell>
                <mxCell id="Hh7dZNtptdnggyX2xkTj-2" value="Aplicação" style="rounded=0;whiteSpace=wrap;html=1;" parent="1" vertex="1">
                    <mxGeometry x="414" y="210" width="310" height="40" as="geometry"/>
                </mxCell>
                <mxCell id="Hh7dZNtptdnggyX2xkTj-3" value="" style="ellipse;html=1;shape=startState;fillColor=#000000;strokeColor=#000000;" parent="1" vertex="1">
                    <mxGeometry x="244" y="270" width="30" height="30" as="geometry"/>
                </mxCell>
                <mxCell id="Hh7dZNtptdnggyX2xkTj-4" value="" style="edgeStyle=orthogonalEdgeStyle;html=1;verticalAlign=bottom;endArrow=open;endSize=8;strokeColor=#000000;rounded=0;entryX=0.5;entryY=0;entryDx=0;entryDy=0;" parent="1" source="Hh7dZNtptdnggyX2xkTj-3" target="Hh7dZNtptdnggyX2xkTj-7" edge="1">
                    <mxGeometry relative="1" as="geometry">
                        <mxPoint x="275" y="360" as="targetPoint"/>
                    </mxGeometry>
                </mxCell>
                <mxCell id="Hh7dZNtptdnggyX2xkTj-7" value="Entra na tela de ver passagem" style="rounded=1;whiteSpace=wrap;html=1;" parent="1" vertex="1">
                    <mxGeometry x="196.5" y="350" width="125" height="50" as="geometry"/>
                </mxCell>
                <mxCell id="Hh7dZNtptdnggyX2xkTj-10" value="Mostra dados da passagem" style="rounded=1;whiteSpace=wrap;html=1;" parent="1" vertex="1">
                    <mxGeometry x="510" y="350" width="125" height="50" as="geometry"/>
                </mxCell>
                <mxCell id="Hh7dZNtptdnggyX2xkTj-11" value="" style="edgeStyle=orthogonalEdgeStyle;html=1;verticalAlign=bottom;endArrow=open;endSize=8;strokeColor=#000000;rounded=0;entryX=0;entryY=0.5;entryDx=0;entryDy=0;exitX=1;exitY=0.5;exitDx=0;exitDy=0;" parent="1" source="Hh7dZNtptdnggyX2xkTj-7" target="Hh7dZNtptdnggyX2xkTj-10" edge="1">
                    <mxGeometry relative="1" as="geometry">
                        <mxPoint x="390" y="430" as="targetPoint"/>
                        <mxPoint x="390" y="380" as="sourcePoint"/>
                    </mxGeometry>
                </mxCell>
                <mxCell id="Hh7dZNtptdnggyX2xkTj-12" value="&lt;div&gt;Escolhe realizar&lt;/div&gt;&lt;div&gt;check-in&lt;/div&gt;" style="rounded=1;whiteSpace=wrap;html=1;" parent="1" vertex="1">
                    <mxGeometry x="196.5" y="440" width="125" height="50" as="geometry"/>
                </mxCell>
                <mxCell id="Hh7dZNtptdnggyX2xkTj-13" value="" style="edgeStyle=orthogonalEdgeStyle;html=1;verticalAlign=bottom;endArrow=open;endSize=8;strokeColor=#000000;rounded=0;entryX=1;entryY=0.5;entryDx=0;entryDy=0;exitX=0.5;exitY=1;exitDx=0;exitDy=0;" parent="1" source="Hh7dZNtptdnggyX2xkTj-10" target="Hh7dZNtptdnggyX2xkTj-12" edge="1">
                    <mxGeometry relative="1" as="geometry">
                        <mxPoint x="605" y="450" as="targetPoint"/>
                        <mxPoint x="500" y="450" as="sourcePoint"/>
                    </mxGeometry>
                </mxCell>
                <mxCell id="Hh7dZNtptdnggyX2xkTj-14" value="Cria check-in da passagem" style="rounded=1;whiteSpace=wrap;html=1;" parent="1" vertex="1">
                    <mxGeometry x="430" y="700" width="125" height="50" as="geometry"/>
                </mxCell>
                <mxCell id="Hh7dZNtptdnggyX2xkTj-15" value="" style="edgeStyle=orthogonalEdgeStyle;html=1;verticalAlign=bottom;endArrow=open;endSize=8;strokeColor=#000000;rounded=0;entryX=0;entryY=0.5;entryDx=0;entryDy=0;exitX=0.5;exitY=1;exitDx=0;exitDy=0;" parent="1" source="Hh7dZNtptdnggyX2xkTj-12" target="8" edge="1">
                    <mxGeometry relative="1" as="geometry">
                        <mxPoint x="223" y="635" as="targetPoint"/>
                        <mxPoint x="390" y="560" as="sourcePoint"/>
                    </mxGeometry>
                </mxCell>
                <mxCell id="Hh7dZNtptdnggyX2xkTj-17" value="" style="edgeStyle=orthogonalEdgeStyle;html=1;verticalAlign=bottom;endArrow=open;endSize=8;strokeColor=#000000;rounded=0;entryX=0.5;entryY=0;entryDx=0;entryDy=0;exitX=0.5;exitY=1;exitDx=0;exitDy=0;" parent="1" source="Hh7dZNtptdnggyX2xkTj-14" target="Ed1rDfoJOPvzTUT5H8_8-1" edge="1">
                    <mxGeometry relative="1" as="geometry">
                        <mxPoint x="632.5" y="585" as="targetPoint"/>
                        <mxPoint x="440" y="584" as="sourcePoint"/>
                    </mxGeometry>
                </mxCell>
                <mxCell id="Hh7dZNtptdnggyX2xkTj-27" value="" style="ellipse;html=1;shape=endState;fillColor=#000000;strokeColor=#000000;" parent="1" vertex="1">
                    <mxGeometry x="477.5" y="880" width="30" height="30" as="geometry"/>
                </mxCell>
                <mxCell id="Ed1rDfoJOPvzTUT5H8_8-1" value="&lt;div&gt;Informa que o&lt;/div&gt;&lt;div&gt;check-in foi realizado com sucesso&lt;/div&gt;" style="rounded=1;whiteSpace=wrap;html=1;" parent="1" vertex="1">
                    <mxGeometry x="430" y="810" width="125" height="50" as="geometry"/>
                </mxCell>
                <mxCell id="Ed1rDfoJOPvzTUT5H8_8-4" value="" style="edgeStyle=orthogonalEdgeStyle;html=1;verticalAlign=bottom;endArrow=open;endSize=8;strokeColor=#000000;rounded=0;entryX=0.5;entryY=0;entryDx=0;entryDy=0;exitX=0.5;exitY=1;exitDx=0;exitDy=0;" parent="1" edge="1" target="Hh7dZNtptdnggyX2xkTj-27" source="Ed1rDfoJOPvzTUT5H8_8-1">
                    <mxGeometry relative="1" as="geometry">
                        <mxPoint x="572.37" y="660" as="targetPoint"/>
                        <mxPoint x="573" y="710" as="sourcePoint"/>
                    </mxGeometry>
                </mxCell>
                <mxCell id="2" value="" style="rhombus;whiteSpace=wrap;html=1;" vertex="1" parent="1">
                    <mxGeometry x="541.5" y="580" width="55" height="50" as="geometry"/>
                </mxCell>
                <mxCell id="3" value="" style="edgeStyle=orthogonalEdgeStyle;html=1;verticalAlign=bottom;endArrow=open;endSize=8;strokeColor=#000000;rounded=0;entryX=0.5;entryY=0;entryDx=0;entryDy=0;exitX=0;exitY=0.5;exitDx=0;exitDy=0;" edge="1" parent="1" source="2" target="Hh7dZNtptdnggyX2xkTj-14">
                    <mxGeometry relative="1" as="geometry">
                        <mxPoint x="269" y="520" as="targetPoint"/>
                        <mxPoint x="269" y="500" as="sourcePoint"/>
                        <Array as="points">
                            <mxPoint x="493" y="605"/>
                            <mxPoint x="493" y="690"/>
                            <mxPoint x="493" y="690"/>
                        </Array>
                    </mxGeometry>
                </mxCell>
                <mxCell id="5" value="Cria check-in da passagem" style="rounded=1;whiteSpace=wrap;html=1;" vertex="1" parent="1">
                    <mxGeometry x="580" y="700" width="125" height="50" as="geometry"/>
                </mxCell>
                <mxCell id="6" value="" style="edgeStyle=orthogonalEdgeStyle;html=1;verticalAlign=bottom;endArrow=open;endSize=8;strokeColor=#000000;rounded=0;entryX=0.5;entryY=0;entryDx=0;entryDy=0;exitX=1;exitY=0.5;exitDx=0;exitDy=0;" edge="1" parent="1" source="2" target="5">
                    <mxGeometry relative="1" as="geometry">
                        <mxPoint x="502.4999999999998" y="710" as="targetPoint"/>
                        <mxPoint x="551.5" y="615" as="sourcePoint"/>
                        <Array as="points">
                            <mxPoint x="643" y="605"/>
                            <mxPoint x="643" y="690"/>
                            <mxPoint x="643" y="690"/>
                        </Array>
                    </mxGeometry>
                </mxCell>
                <mxCell id="7" value="" style="edgeStyle=orthogonalEdgeStyle;html=1;verticalAlign=bottom;endArrow=open;endSize=8;strokeColor=#000000;rounded=0;entryX=1;entryY=0.5;entryDx=0;entryDy=0;exitX=0.5;exitY=1;exitDx=0;exitDy=0;" edge="1" parent="1" source="5" target="Hh7dZNtptdnggyX2xkTj-27">
                    <mxGeometry relative="1" as="geometry">
                        <mxPoint x="665.23" y="905" as="targetPoint"/>
                        <mxPoint x="619.23" y="810" as="sourcePoint"/>
                        <Array as="points">
                            <mxPoint x="642" y="810"/>
                            <mxPoint x="642" y="895"/>
                        </Array>
                    </mxGeometry>
                </mxCell>
                <mxCell id="8" value="Verifica se faltam menos de 24 horas para o voo" style="rounded=1;whiteSpace=wrap;html=1;" vertex="1" parent="1">
                    <mxGeometry x="506.5" y="500" width="125" height="50" as="geometry"/>
                </mxCell>
                <mxCell id="9" value="" style="edgeStyle=orthogonalEdgeStyle;html=1;verticalAlign=bottom;endArrow=open;endSize=8;strokeColor=#000000;rounded=0;exitX=0.5;exitY=1;exitDx=0;exitDy=0;entryX=0.5;entryY=0;entryDx=0;entryDy=0;" edge="1" parent="1" source="8" target="2">
                    <mxGeometry relative="1" as="geometry">
                        <mxPoint x="569" y="580" as="targetPoint"/>
                        <mxPoint x="551.5" y="615" as="sourcePoint"/>
                        <Array as="points">
                            <mxPoint x="569" y="570"/>
                            <mxPoint x="569" y="570"/>
                        </Array>
                    </mxGeometry>
                </mxCell>
            </root>
        </mxGraphModel>
    </diagram>
</mxfile>